<svg xmlns="http://www.w3.org/2000/svg" viewBox="0 0 96 96"><rect x="11" y="51" width="1" height="1" fill="#c8fbff" opacity="0.25"/><rect x="11" y="87" width="1" height="1" fill="#fff" opacity="0.55"/><rect x="42" y="17" width="1" height="1" fill="#fff" opacity="0.4"/><rect x="2" y="83" width="1" height="1" fill="#ffd6f2" opacity="0.55"/><rect x="11" y="68" width="1" height="1" fill="#fff" opacity="0.25"/><rect x="84" y="74" width="1" height="1" fill="#c8fbff" opacity="0.55"/><rect x="23" y="24" width="1" height="1" fill="#c8fbff" opacity="0.25"/><rect x="93" y="16" width="1" height="1" fill="#ffd6f2" opacity="0.4"/><rect x="95" y="34" width="1" height="1" fill="#fff" opacity="0.55"/><rect x="35" y="43" width="1" height="1" fill="#c8fbff" opacity="0.55"/><rect x="26" y="9" width="1" height="1" fill="#ffd6f2" opacity="0.25"/><rect x="12" y="54" width="1" height="1" fill="#ffd6f2" opacity="0.4"/><rect x="77" y="20" width="1" height="1" fill="#ffd6f2" opacity="0.55"/><rect x="14" y="64" width="1" height="1" fill="#c8fbff" opacity="0.25"/><rect x="37" y="3" width="1" height="1" fill="#c8fbff" opacity="0.55"/><rect x="41" y="44" width="1" height="1" fill="#ffd6f2" opacity="0.55"/><rect x="87" y="25" width="1" height="1" fill="#fff" opacity="0.4"/><rect x="59" y="30" width="1" height="1" fill="#ffd6f2" opacity="0.4"/><rect x="32" y="64" width="1" height="1" fill="#fff" opacity="0.4"/><rect x="66" y="5" width="1" height="1" fill="#ffd6f2" opacity="0.25"/><rect x="9" y="58" width="1" height="1" fill="#ffd6f2" opacity="0.25"/><rect x="55" y="14" width="1" height="1" fill="#c8fbff" opacity="0.25"/><rect x="44" y="75" width="1" height="1" fill="#c8fbff" opacity="0.25"/><rect x="86" y="34" width="1" height="1" fill="#ffd6f2" opacity="0.55"/><rect x="72" y="55" width="1" height="1" fill="#c8fbff" opacity="0.4"/><rect x="25" y="59" width="1" height="1" fill="#c8fbff" opacity="0.25"/><rect x="87" y="23" width="1" height="1" fill="#fff" opacity="0.55"/><rect x="79" y="70" width="1" height="1" fill="#ffd6f2" opacity="0.25"/><rect x="54" y="12" width="1" height="1" fill="#fff" opacity="0.4"/><rect x="52" y="16" width="1" height="1" fill="#fff" opacity="0.25"/><rect x="52" y="88" width="1" height="1" fill="#ffd6f2" opacity="0.25"/><rect x="60" y="86" width="1" height="1" fill="#ffd6f2" opacity="0.25"/><rect x="8" y="12" width="1" height="1" fill="#fff" opacity="0.25"/><rect x="89" y="52" width="1" height="1" fill="#c8fbff" opacity="0.25"/><rect x="74" y="55" width="1" height="1" fill="#ffd6f2" opacity="0.25"/><rect x="65" y="15" width="1" height="1" fill="#c8fbff" opacity="0.55"/><rect x="59" y="87" width="1" height="1" fill="#c8fbff" opacity="0.55"/><rect x="60" y="61" width="1" height="1" fill="#ffd6f2" opacity="0.55"/><rect x="26" y="67" width="1" height="1" fill="#ffd6f2" opacity="0.55"/><rect x="54" y="35" width="1" height="1" fill="#fff" opacity="0.4"/><rect x="57" y="46" width="1" height="1" fill="#c8fbff" opacity="0.4"/><rect x="13" y="5" width="1" height="1" fill="#c8fbff" opacity="0.4"/><rect x="46" y="65" width="1" height="1" fill="#fff" opacity="0.25"/><rect x="74" y="5" width="1" height="1" fill="#ffd6f2" opacity="0.55"/><rect x="1" y="24" width="1" height="1" fill="#c8fbff" opacity="0.4"/><rect x="73" y="74" width="1" height="1" fill="#fff" opacity="0.25"/><rect x="67" y="74" width="1" height="1" fill="#fff" opacity="0.25"/><rect x="0" y="31" width="1" height="1" fill="#c8fbff" opacity="0.25"/><rect x="30" y="42" width="1" height="1" fill="#fff" opacity="0.25"/><rect x="80" y="62" width="1" height="1" fill="#c8fbff" opacity="0.4"/><rect x="63" y="31" width="1" height="1" fill="#c8fbff" opacity="0.25"/><rect x="0" y="63" width="1" height="1" fill="#fff" opacity="0.55"/><rect x="58" y="90" width="1" height="1" fill="#fff" opacity="0.25"/><rect x="59" y="72" width="1" height="1" fill="#fff" opacity="0.4"/><rect x="33" y="18" width="1" height="1" fill="#c8fbff" opacity="0.55"/><rect x="61" y="92" width="1" height="1" fill="#ffd6f2" opacity="0.55"/><rect x="10" y="87" width="1" height="1" fill="#c8fbff" opacity="0.4"/><rect x="73" y="94" width="1" height="1" fill="#ffd6f2" opacity="0.4"/><rect x="54" y="61" width="1" height="1" fill="#c8fbff" opacity="0.55"/><rect x="55" y="65" width="1" height="1" fill="#ffd6f2" opacity="0.4"/><rect x="4" y="52" width="1" height="1" fill="#ffd6f2" opacity="0.25"/><rect x="86" y="23" width="1" height="1" fill="#ffd6f2" opacity="0.55"/><rect x="56" y="40" width="1" height="1" fill="#c8fbff" opacity="0.25"/><rect x="95" y="52" width="1" height="1" fill="#c8fbff" opacity="0.55"/><rect x="59" y="20" width="1" height="1" fill="#fff" opacity="0.4"/><rect x="75" y="79" width="1" height="1" fill="#c8fbff" opacity="0.4"/><rect x="11" y="62" width="1" height="1" fill="#fff" opacity="0.55"/><rect x="28" y="51" width="1" height="1" fill="#ffd6f2" opacity="0.55"/><rect x="2" y="19" width="1" height="1" fill="#fff" opacity="0.4"/><rect x="36" y="77" width="1" height="1" fill="#c8fbff" opacity="0.25"/><rect x="19" y="1" width="1" height="1" fill="#c8fbff" opacity="0.25"/><rect x="62" y="16" width="1" height="1" fill="#ffd6f2" opacity="0.55"/><rect x="31" y="19" width="1" height="1" fill="#c8fbff" opacity="0.25"/><rect x="71" y="69" width="1" height="1" fill="#ffd6f2" opacity="0.25"/><rect x="34" y="81" width="1" height="1" fill="#c8fbff" opacity="0.25"/><rect x="52" y="26" width="1" height="1" fill="#c8fbff" opacity="0.55"/><rect x="39" y="68" width="1" height="1" fill="#c8fbff" opacity="0.25"/><rect x="15" y="91" width="1" height="1" fill="#ffd6f2" opacity="0.4"/><rect x="87" y="71" width="1" height="1" fill="#fff" opacity="0.4"/><rect x="83" y="40" width="1" height="1" fill="#ffd6f2" opacity="0.55"/><rect x="49" y="53" width="1" height="1" fill="#ffd6f2" opacity="0.55"/><rect x="10" y="18" width="1" height="1" fill="#c8fbff" opacity="0.55"/><rect x="39" y="81" width="1" height="1" fill="#ffd6f2" opacity="0.4"/><rect x="29" y="15" width="1" height="1" fill="#fff" opacity="0.4"/><rect x="82" y="51" width="1" height="1" fill="#c8fbff" opacity="0.25"/><rect x="19" y="12" width="1" height="1" fill="#c8fbff" opacity="0.55"/><rect x="94" y="79" width="1" height="1" fill="#ffd6f2" opacity="0.55"/><rect x="65" y="70" width="1" height="1" fill="#c8fbff" opacity="0.4"/><rect x="13" y="62" width="1" height="1" fill="#ffd6f2" opacity="0.55"/><rect x="92" y="93" width="1" height="1" fill="#fff" opacity="0.55"/></svg>
