<svg xmlns="http://www.w3.org/2000/svg" viewBox="0 0 1600 640" preserveAspectRatio="xMidYMax slice">
  <defs>
    <linearGradient id="floor" x1="0" y1="0" x2="0" y2="1">
      <stop offset="0" stop-color="#2a0838" stop-opacity="0"/>
      <stop offset="0.2" stop-color="#180828" stop-opacity="0.3"/>
      <stop offset="1" stop-color="#070312" stop-opacity="0.62"/>
    </linearGradient>
    <linearGradient id="haze" x1="0" y1="0" x2="0" y2="1">
      <stop offset="0" stop-color="#ff4fd8" stop-opacity="0"/>
      <stop offset="0.25" stop-color="#ff4fd8" stop-opacity="0.2"/>
      <stop offset="1" stop-color="#3df0ff" stop-opacity="0"/>
    </linearGradient>
    <pattern id="dots" width="8" height="8" patternUnits="userSpaceOnUse">
      <rect width="1.4" height="1.4" fill="#ff4fd8"/>
      <rect x="4" y="4" width="1.4" height="1.4" fill="#7af6ff" opacity="0.7"/>
    </pattern>
    <linearGradient id="dotfade" x1="0" y1="0" x2="0" y2="1">
      <stop offset="0" stop-color="#fff" stop-opacity="0"/>
      <stop offset="0.35" stop-color="#fff" stop-opacity="0.25"/>
      <stop offset="1" stop-color="#fff" stop-opacity="0.7"/>
    </linearGradient>
    <mask id="dotmask">
      <rect width="1600" height="640" fill="url(#dotfade)"/>
    </mask>
  </defs>
  <rect width="1600" height="640" fill="url(#floor)"/>
  <rect width="1600" height="110" fill="url(#haze)"/>
  <g fill="none" stroke-width="1.35">
    <path d="M0 86 L100 40 L170 74 L250 28 L340 78 L430 36 L520 18 L610 70 L710 34 L800 14 L900 66 L990 30 L1090 72 L1180 26 L1280 64 L1380 22 L1470 60 L1600 78" stroke="#ff8ae0" opacity="0.6"/>
    <path d="M0 118 L140 82 L250 110 L360 76 L480 116 L600 84 L730 120 L860 86 L990 114 L1120 78 L1260 112 L1400 80 L1600 116" stroke="#7af6ff" opacity="0.4"/>
  </g>
  <g fill="none">
    <line x1="731.8" y1="0" x2="-480" y2="640" stroke="#ff4ec9" stroke-width="1.15" opacity="0.9"/><line x1="736.6" y1="0" x2="-390" y2="640" stroke="#ff4ec9" stroke-width="1.15" opacity="0.5"/><line x1="741.4" y1="0" x2="-300" y2="640" stroke="#ff4ec9" stroke-width="1.15" opacity="0.5"/><line x1="746.2" y1="0" x2="-210" y2="640" stroke="#ff4ec9" stroke-width="1.15" opacity="0.9"/><line x1="751.0" y1="0" x2="-120" y2="640" stroke="#ff4ec9" stroke-width="1.15" opacity="0.5"/><line x1="755.8" y1="0" x2="-30" y2="640" stroke="#ff4ec9" stroke-width="1.15" opacity="0.5"/><line x1="760.6" y1="0" x2="60" y2="640" stroke="#ff4ec9" stroke-width="1.15" opacity="0.9"/><line x1="765.4" y1="0" x2="150" y2="640" stroke="#ff4ec9" stroke-width="1.15" opacity="0.5"/><line x1="770.2" y1="0" x2="240" y2="640" stroke="#ff4ec9" stroke-width="1.15" opacity="0.5"/><line x1="775.0" y1="0" x2="330" y2="640" stroke="#ff4ec9" stroke-width="1.15" opacity="0.9"/><line x1="779.8" y1="0" x2="420" y2="640" stroke="#ff4ec9" stroke-width="1.15" opacity="0.5"/><line x1="784.6" y1="0" x2="510" y2="640" stroke="#ff4ec9" stroke-width="1.15" opacity="0.5"/><line x1="789.3" y1="0" x2="600" y2="640" stroke="#ff4ec9" stroke-width="1.15" opacity="0.9"/><line x1="794.1" y1="0" x2="690" y2="640" stroke="#ff4ec9" stroke-width="1.15" opacity="0.5"/><line x1="798.9" y1="0" x2="780" y2="640" stroke="#ff4ec9" stroke-width="1.15" opacity="0.5"/><line x1="803.7" y1="0" x2="870" y2="640" stroke="#ff4ec9" stroke-width="1.15" opacity="0.9"/><line x1="808.5" y1="0" x2="960" y2="640" stroke="#ff4ec9" stroke-width="1.15" opacity="0.5"/><line x1="813.3" y1="0" x2="1050" y2="640" stroke="#ff4ec9" stroke-width="1.15" opacity="0.5"/><line x1="818.1" y1="0" x2="1140" y2="640" stroke="#ff4ec9" stroke-width="1.15" opacity="0.9"/><line x1="822.9" y1="0" x2="1230" y2="640" stroke="#ff4ec9" stroke-width="1.15" opacity="0.5"/><line x1="827.7" y1="0" x2="1320" y2="640" stroke="#ff4ec9" stroke-width="1.15" opacity="0.5"/><line x1="832.5" y1="0" x2="1410" y2="640" stroke="#ff4ec9" stroke-width="1.15" opacity="0.9"/><line x1="837.3" y1="0" x2="1500" y2="640" stroke="#ff4ec9" stroke-width="1.15" opacity="0.5"/><line x1="842.1" y1="0" x2="1590" y2="640" stroke="#ff4ec9" stroke-width="1.15" opacity="0.5"/><line x1="846.9" y1="0" x2="1680" y2="640" stroke="#ff4ec9" stroke-width="1.15" opacity="0.9"/><line x1="851.7" y1="0" x2="1770" y2="640" stroke="#ff4ec9" stroke-width="1.15" opacity="0.5"/><line x1="856.4" y1="0" x2="1860" y2="640" stroke="#ff4ec9" stroke-width="1.15" opacity="0.5"/><line x1="861.2" y1="0" x2="1950" y2="640" stroke="#ff4ec9" stroke-width="1.15" opacity="0.9"/><line x1="866.0" y1="0" x2="2040" y2="640" stroke="#ff4ec9" stroke-width="1.15" opacity="0.5"/><line x1="734.2" y1="0" x2="-435" y2="640" stroke="#d07bff" stroke-width="0.7" opacity="0.32"/><line x1="739.0" y1="0" x2="-345" y2="640" stroke="#d07bff" stroke-width="0.7" opacity="0.32"/><line x1="743.8" y1="0" x2="-255" y2="640" stroke="#d07bff" stroke-width="0.7" opacity="0.32"/><line x1="748.6" y1="0" x2="-165" y2="640" stroke="#d07bff" stroke-width="0.7" opacity="0.32"/><line x1="753.4" y1="0" x2="-75" y2="640" stroke="#d07bff" stroke-width="0.7" opacity="0.32"/><line x1="758.2" y1="0" x2="15" y2="640" stroke="#d07bff" stroke-width="0.7" opacity="0.32"/><line x1="763.0" y1="0" x2="105" y2="640" stroke="#d07bff" stroke-width="0.7" opacity="0.32"/><line x1="767.8" y1="0" x2="195" y2="640" stroke="#d07bff" stroke-width="0.7" opacity="0.32"/><line x1="772.6" y1="0" x2="285" y2="640" stroke="#d07bff" stroke-width="0.7" opacity="0.32"/><line x1="777.4" y1="0" x2="375" y2="640" stroke="#d07bff" stroke-width="0.7" opacity="0.32"/><line x1="782.2" y1="0" x2="465" y2="640" stroke="#d07bff" stroke-width="0.7" opacity="0.32"/><line x1="787.0" y1="0" x2="555" y2="640" stroke="#d07bff" stroke-width="0.7" opacity="0.32"/><line x1="791.7" y1="0" x2="645" y2="640" stroke="#d07bff" stroke-width="0.7" opacity="0.32"/><line x1="796.5" y1="0" x2="735" y2="640" stroke="#d07bff" stroke-width="0.7" opacity="0.32"/><line x1="801.3" y1="0" x2="825" y2="640" stroke="#d07bff" stroke-width="0.7" opacity="0.32"/><line x1="806.1" y1="0" x2="915" y2="640" stroke="#d07bff" stroke-width="0.7" opacity="0.32"/><line x1="810.9" y1="0" x2="1005" y2="640" stroke="#d07bff" stroke-width="0.7" opacity="0.32"/><line x1="815.7" y1="0" x2="1095" y2="640" stroke="#d07bff" stroke-width="0.7" opacity="0.32"/><line x1="820.5" y1="0" x2="1185" y2="640" stroke="#d07bff" stroke-width="0.7" opacity="0.32"/><line x1="825.3" y1="0" x2="1275" y2="640" stroke="#d07bff" stroke-width="0.7" opacity="0.32"/><line x1="830.1" y1="0" x2="1365" y2="640" stroke="#d07bff" stroke-width="0.7" opacity="0.32"/><line x1="834.9" y1="0" x2="1455" y2="640" stroke="#d07bff" stroke-width="0.7" opacity="0.32"/><line x1="839.7" y1="0" x2="1545" y2="640" stroke="#d07bff" stroke-width="0.7" opacity="0.32"/><line x1="844.5" y1="0" x2="1635" y2="640" stroke="#d07bff" stroke-width="0.7" opacity="0.32"/><line x1="849.3" y1="0" x2="1725" y2="640" stroke="#d07bff" stroke-width="0.7" opacity="0.32"/><line x1="854.1" y1="0" x2="1815" y2="640" stroke="#d07bff" stroke-width="0.7" opacity="0.32"/><line x1="858.8" y1="0" x2="1905" y2="640" stroke="#d07bff" stroke-width="0.7" opacity="0.32"/><line x1="863.6" y1="0" x2="1995" y2="640" stroke="#d07bff" stroke-width="0.7" opacity="0.32"/>
    <line x1="717.7" y1="4.9" x2="882.3" y2="4.9" stroke="#ff4ec9" stroke-width="1.05" opacity="0.36"/><line x1="690.8" y1="18.3" x2="909.2" y2="18.3" stroke="#ff4ec9" stroke-width="1.05" opacity="0.40"/><line x1="648.2" y1="39.5" x2="951.8" y2="39.5" stroke="#ff4ec9" stroke-width="1.45" opacity="0.45"/><line x1="590.4" y1="68.2" x2="1009.6" y2="68.2" stroke="#7af6ff" stroke-width="1.05" opacity="0.49"/><line x1="518.0" y1="104.2" x2="1082.0" y2="104.2" stroke="#ff4ec9" stroke-width="1.05" opacity="0.53"/><line x1="431.2" y1="147.3" x2="1168.8" y2="147.3" stroke="#ff4ec9" stroke-width="1.45" opacity="0.57"/><line x1="330.4" y1="197.4" x2="1269.6" y2="197.4" stroke="#ff4ec9" stroke-width="1.05" opacity="0.62"/><line x1="215.7" y1="254.4" x2="1384.3" y2="254.4" stroke="#7af6ff" stroke-width="1.05" opacity="0.66"/><line x1="87.3" y1="318.2" x2="1512.7" y2="318.2" stroke="#ff4ec9" stroke-width="1.45" opacity="0.70"/><line x1="-54.6" y1="388.8" x2="1654.6" y2="388.8" stroke="#ff4ec9" stroke-width="1.05" opacity="0.74"/><line x1="-209.8" y1="465.9" x2="1809.8" y2="465.9" stroke="#ff4ec9" stroke-width="1.05" opacity="0.79"/><line x1="-378.3" y1="549.7" x2="1978.3" y2="549.7" stroke="#7af6ff" stroke-width="1.45" opacity="0.83"/><line x1="-560.0" y1="640.0" x2="2160.0" y2="640.0" stroke="#ff4ec9" stroke-width="1.05" opacity="0.87"/>
  </g>
  <rect width="1600" height="640" fill="url(#dots)" mask="url(#dotmask)" opacity="0.35"/>
  <rect width="1600" height="2" fill="#ff4fd8"/>
  <rect y="3" width="1600" height="1" fill="#7af6ff" opacity="0.75"/>
</svg>
